<?xml version="1.0" encoding="UTF-8" standalone="no"?>
<svg width="169px" height="51px" viewBox="0 0 169 51" version="1.1" xmlns="http://www.w3.org/2000/svg" xmlns:xlink="http://www.w3.org/1999/xlink">
    <!-- Generator: Sketch 3.6.1 (26313) - http://www.bohemiancoding.com/sketch -->
    <title>App Store</title>
    <desc>Created with Sketch.</desc>
    <defs></defs>
    <g id="Desktop-Version" stroke="none" stroke-width="1" fill="none" fill-rule="evenodd">
        <g id="version_1_hand" transform="translate(-511.000000, -5336.000000)">
            <g id="footer" transform="translate(0.000000, 5216.000000)">
                <g id="Group-4" transform="translate(511.000000, 120.000000)">
                    <g id="App-Store">
                        <g id="US_UK_Download_on_the" transform="translate(0.000000, 0.189997)">
                            <g id="Group">
                                <path d="M5.92000741,50.7 C2.65642963,50.7 0,48.00276 0,44.7009225 L0,5.990205 C0,2.6871 2.65642963,0 5.92000741,0 L162.987356,0 C166.249681,0 169,2.6871 169,5.990205 L169,44.7009225 C169,48.00276 166.249681,50.7 162.987356,50.7 L5.92000741,50.7 Z" id="Shape" fill="#000000"></path>
                                <g transform="translate(15.162837, 7.104235)" id="Shape" fill="#FFFFFF">
                                    <path d="M20.878658,16.3207959 C20.8439659,12.5046376 24.0356384,10.6480642 24.1815844,10.5616294 C22.3740068,7.95319108 19.5723213,7.59679529 18.5877837,7.56837835 C16.2347028,7.32328225 13.9522024,8.96199245 12.7535308,8.96199245 C11.5309336,8.96199245 9.68507508,7.59205914 7.69566304,7.63231647 C5.1356259,7.67138976 2.74067527,9.13841429 1.42716089,11.4165056 C-1.28360741,16.0614913 0.738104166,22.8874771 3.33522595,26.6420653 C4.63438499,28.4808781 6.15246308,30.534002 8.13948256,30.4617756 C10.083436,30.382445 10.8095774,29.2351111 13.1554806,29.2351111 C15.4798507,29.2351111 16.1617298,30.4617756 18.1882265,30.4155981 C20.2745371,30.382445 21.5880515,28.568497 22.8417519,26.7131076 C24.3430821,24.6055179 24.9460067,22.5298973 24.9699323,22.4233337 C24.9208849,22.4067572 20.9181352,20.8947392 20.878658,16.3207959 L20.878658,16.3207959 Z"></path>
                                    <path d="M17.0505651,5.09847265 C18.096113,3.80431784 18.8114878,2.0436516 18.6129055,0.256936499 C17.0996125,0.323242693 15.2070991,1.29297077 14.1172889,2.55870864 C13.153088,3.67407353 12.2917671,5.50223001 12.514275,7.22145488 C14.2141875,7.34696303 15.9595586,6.3724988 17.0505651,5.09847265 L17.0505651,5.09847265 Z"></path>
                                </g>
                                <g transform="translate(50.243720, 21.312705)" id="Shape" fill="#FFFFFF">
                                    <path d="M13.9306694,15.9892649 L11.2139197,15.9892649 L9.72574857,11.3608558 L4.55303801,11.3608558 L3.13544735,15.9892649 L0.490474405,15.9892649 L5.6153338,0.232071677 L8.78068813,0.232071677 L13.9306694,15.9892649 L13.9306694,15.9892649 Z M9.27714393,9.41903157 L7.93133001,5.30449547 C7.78897281,4.88416156 7.52220258,3.89430482 7.12862678,2.33610928 L7.08077562,2.33610928 C6.92406306,3.00627544 6.67164819,3.99613219 6.32472727,5.30449547 L5.00283893,9.41903157 L9.27714393,9.41903157 L9.27714393,9.41903157 Z"></path>
                                    <path d="M27.1100755,10.1685284 C27.1100755,12.1008803 26.5825165,13.6282908 25.5273984,14.7495759 C24.5823379,15.7477209 23.4087882,16.2462014 22.0079454,16.2462014 C20.4958487,16.2462014 19.4096274,15.7086476 18.7480851,14.6335401 L18.7002339,14.6335401 L18.7002339,20.6188581 L16.149767,20.6188581 L16.149767,8.36760479 C16.149767,7.15278061 16.1174675,5.90598736 16.0552609,4.62722506 L18.2982841,4.62722506 L18.4406413,6.42814864 L18.4884925,6.42814864 C19.3390469,5.07123975 20.629832,4.39396935 22.362044,4.39396935 C23.7162319,4.39396935 24.8467156,4.92323486 25.7511025,5.98294991 C26.6578821,7.043849 27.1100755,8.43864714 27.1100755,10.1685284 L27.1100755,10.1685284 Z M24.5117575,10.2608834 C24.5117575,9.15499084 24.2605389,8.24328068 23.7557091,7.52575294 C23.2042245,6.77744019 22.4637277,6.40328381 21.5354152,6.40328381 C20.9061724,6.40328381 20.3343511,6.61167471 19.8235399,7.0225363 C19.3115325,7.43695001 18.9765744,7.97805591 18.8198618,8.64822207 C18.7409074,8.96080841 18.7014302,9.21656087 18.7014302,9.41784753 L18.7014302,11.3123102 C18.7014302,12.1387695 18.9574339,12.8361686 19.4694413,13.4056914 C19.9814487,13.9752143 20.6465799,14.2593837 21.4648348,14.2593837 C22.4254468,14.2593837 23.1731212,13.8923315 23.7078579,13.1605953 C24.243791,12.4276751 24.5117575,11.4614991 24.5117575,10.2608834 L24.5117575,10.2608834 Z"></path>
                                    <path d="M40.3134073,10.1685284 C40.3134073,12.1008803 39.7858482,13.6282908 38.7295338,14.7495759 C37.7856696,15.7477209 36.6121199,16.2462014 35.2112772,16.2462014 C33.6991805,16.2462014 32.6129591,15.7086476 31.9526131,14.6335401 L31.9047619,14.6335401 L31.9047619,20.6188581 L29.354295,20.6188581 L29.354295,8.36760479 C29.354295,7.15278061 29.3219955,5.90598736 29.259789,4.62722506 L31.5028121,4.62722506 L31.6451694,6.42814864 L31.6930205,6.42814864 C32.5423786,5.07123975 33.8331637,4.39396935 35.566572,4.39396935 C36.9195636,4.39396935 38.0500473,4.92323486 38.9568268,5.98294991 C39.8600175,7.043849 40.3134073,8.43864714 40.3134073,10.1685284 L40.3134073,10.1685284 Z M37.7150892,10.2608834 C37.7150892,9.15499084 37.4626743,8.24328068 36.9578446,7.52575294 C36.4063599,6.77744019 35.6682558,6.40328381 34.7387469,6.40328381 C34.1083079,6.40328381 33.5376828,6.61167471 33.0256754,7.0225363 C32.5136679,7.43695001 32.1799061,7.97805591 32.0231935,8.64822207 C31.9454354,8.96080841 31.9047619,9.21656087 31.9047619,9.41784753 L31.9047619,11.3123102 C31.9047619,12.1387695 32.1607656,12.8361686 32.6703805,13.4056914 C33.1823879,13.9740302 33.8475191,14.2593837 34.6681665,14.2593837 C35.6287785,14.2593837 36.3764529,13.8923315 36.9111897,13.1605953 C37.4471227,12.4276751 37.7150892,11.4614991 37.7150892,10.2608834 L37.7150892,10.2608834 Z"></path>
                                    <path d="M55.0754906,11.5704307 C55.0754906,12.9107631 54.6053529,14.0012631 53.6614887,14.843115 C52.6243148,15.7631134 51.180406,16.2225206 49.3249772,16.2225206 C47.6119057,16.2225206 46.2385773,15.8957258 45.1990108,15.2409522 L45.7899727,13.1369146 C46.9096899,13.8070807 48.1382684,14.1433478 49.4769047,14.1433478 C50.4375167,14.1433478 51.1851911,13.9278527 51.7223204,13.4992305 C52.2570572,13.0706084 52.5238274,12.4951653 52.5238274,11.7776376 C52.5238274,11.1382564 52.303712,10.5995186 51.8622851,10.1626082 C51.4232507,9.72569772 50.6899316,9.31957228 49.6659168,8.94423187 C46.8785866,7.91530183 45.4861178,6.40801997 45.4861178,4.42593841 C45.4861178,3.13059956 45.9741997,2.06851642 46.9515596,1.24205709 C47.9253308,0.414413708 49.2244898,0.00118403917 50.8490367,0.00118403917 C52.2977306,0.00118403917 53.5011874,0.251016303 54.4617994,0.749496793 L53.8241827,2.80735686 C52.9269734,2.32426888 51.9125288,2.08272489 50.77726,2.08272489 C49.8800507,2.08272489 49.1790312,2.30177214 48.676594,2.73749855 C48.2519149,3.12704744 48.0389773,3.60184715 48.0389773,4.16426575 C48.0389773,4.78707035 48.2818219,5.30212739 48.7699038,5.70706878 C49.1945828,6.08122516 49.9661828,6.48616656 51.0859,6.92307701 C52.4556395,7.46891906 53.4617101,8.10711618 54.1088971,8.83885238 C54.7536915,9.56822051 55.0754906,10.4811147 55.0754906,11.5704307 L55.0754906,11.5704307 Z"></path>
                                    <path d="M63.5080615,6.52168773 L60.6968058,6.52168773 L60.6968058,12.0381262 C60.6968058,13.4412126 61.1920653,14.1421638 62.1849769,14.1421638 C62.6407592,14.1421638 63.0187834,14.1030905 63.3178531,14.0249439 L63.3884336,15.9419033 C62.8859964,16.1277975 62.2244541,16.2213366 61.4050029,16.2213366 C60.397736,16.2213366 59.6105844,15.9170385 59.0423518,15.3096264 C58.4765119,14.7010303 58.1917975,13.6803885 58.1917975,12.2465171 L58.1917975,6.51931965 L56.5170068,6.51931965 L56.5170068,4.62485699 L58.1917975,4.62485699 L58.1917975,2.54450017 L60.6968058,1.79618742 L60.6968058,4.62485699 L63.5080615,4.62485699 L63.5080615,6.52168773 L63.5080615,6.52168773 Z"></path>
                                    <path d="M76.1922081,10.2147059 C76.1922081,11.9611637 75.6873784,13.3950351 74.6801114,14.5163202 C73.623797,15.6707584 72.221758,16.2462014 70.4739943,16.2462014 C68.7896334,16.2462014 67.4486046,15.6932551 66.4485154,14.5873625 C65.4484261,13.48147 64.9483815,12.0854878 64.9483815,10.4029681 C64.9483815,8.64230188 65.4627814,7.20014217 66.4951702,6.07885708 C67.5251665,4.95638795 68.9152427,4.39515339 70.6630064,4.39515339 C72.3473673,4.39515339 73.7027514,4.94809968 74.72557,6.0551763 C75.7041263,7.12909982 76.1922081,8.51560969 76.1922081,10.2147059 L76.1922081,10.2147059 Z M73.5460389,10.2964046 C73.5460389,9.24852993 73.3199422,8.3498442 72.8617673,7.60034741 C72.3270305,6.69337341 71.5626082,6.24107045 70.5720892,6.24107045 C69.5468781,6.24107045 68.7681004,6.69455745 68.2333637,7.60034741 C67.7751888,8.35102824 67.5490921,9.26392244 67.5490921,10.3437662 C67.5490921,11.3916408 67.7751888,12.2903266 68.2333637,13.0386393 C68.7848483,13.9456133 69.555252,14.3979163 70.5493599,14.3979163 C71.523131,14.3979163 72.2875533,13.936141 72.839038,13.0149585 C73.3091756,12.2512533 73.5460389,11.3430952 73.5460389,10.2964046 L73.5460389,10.2964046 Z"></path>
                                    <path d="M84.4824218,6.8472985 C84.230007,6.80112097 83.9608442,6.77744019 83.6785223,6.77744019 C82.7813131,6.77744019 82.0874712,7.11252328 81.5993894,7.78387348 C81.1747103,8.37589307 80.9617726,9.12420582 80.9617726,10.0276277 L80.9617726,15.9892649 L78.412502,15.9892649 L78.4364276,8.20539143 C78.4364276,6.89584411 78.4041281,5.70351667 78.3407253,4.6284091 L80.5622154,4.6284091 L80.6555252,6.80230501 L80.7261057,6.80230501 C80.9952684,6.0551763 81.4199475,5.4536844 82.0013391,5.00256548 C82.5695717,4.59644005 83.1832628,4.39396935 83.8448051,4.39396935 C84.0804721,4.39396935 84.2934098,4.4105459 84.4824218,4.44014688 L84.4824218,6.8472985 L84.4824218,6.8472985 Z"></path>
                                    <path d="M95.8889425,9.7706912 C95.8889425,10.2229942 95.8590355,10.6042548 95.7956327,10.9156571 L88.144232,10.9156571 C88.1741389,12.0381262 88.5437892,12.8965546 89.2543789,13.4885742 C89.8991733,14.0178397 90.7329798,14.2830645 91.7569947,14.2830645 C92.8898709,14.2830645 93.923456,14.1042746 94.8529648,13.7455107 L95.252522,15.4978887 C94.1663006,15.9667682 92.8838895,16.2000239 91.4040923,16.2000239 C89.6240291,16.2000239 88.2267752,15.6814147 87.209938,14.6453805 C86.1954934,13.6093462 85.6870748,12.2181002 85.6870748,10.4728264 C85.6870748,8.75952176 86.159605,7.33275456 87.1058618,6.19489292 C88.0963808,4.98006874 89.4350171,4.37265664 91.1193779,4.37265664 C92.7738318,4.37265664 94.026336,4.98006874 94.8768904,6.19489292 C95.5503955,7.15988484 95.8889425,8.35339632 95.8889425,9.7706912 L95.8889425,9.7706912 Z M93.4569072,9.11591755 C93.4736551,8.36760479 93.3073723,7.72111941 92.9616477,7.17527735 C92.5202207,6.47314213 91.8419305,6.12266653 90.9291696,6.12266653 C90.0953631,6.12266653 89.4170729,6.46485385 88.899084,7.15159657 C88.474405,7.69743862 88.2219901,8.35221228 88.144232,9.11473351 L93.4569072,9.11473351 L93.4569072,9.11591755 Z"></path>
                                </g>
                                <g transform="translate(52.247487, 7.104235)" id="Shape" fill="#FFFFFF">
                                    <path d="M6.42999982,4.74681302 C6.42999982,6.14042712 6.00771332,7.18948582 5.1643366,7.89398913 C4.38316639,8.54402663 3.27301944,8.8696374 1.83509204,8.8696374 C1.12210974,8.8696374 0.512007428,8.83885238 0.00119627904,8.77728234 L0.00119627904,1.16272646 C0.667523702,1.05616294 1.38529112,1.00169714 2.16047994,1.00169714 C3.53021944,1.00169714 4.56260825,1.29652289 5.25884264,1.88617439 C6.03881658,2.55278844 6.42999982,3.50593997 6.42999982,4.74681302 L6.42999982,4.74681302 Z M5.10811149,4.78115016 C5.10811149,3.87772827 4.86646312,3.18506536 4.38316639,2.70197738 C3.89986966,2.22007344 3.19406503,1.97852945 2.26455622,1.97852945 C1.86978413,1.97852945 1.53362972,2.00457831 1.25489671,2.05904411 L1.25489671,7.8478116 C1.40921671,7.87149238 1.69153856,7.88214873 2.10186227,7.88214873 C3.06127805,7.88214873 3.80177478,7.618108 4.32335244,7.09002653 C4.8449301,6.56194506 5.10811149,5.7923196 5.10811149,4.78115016 L5.10811149,4.78115016 Z"></path>
                                    <path d="M13.4389987,5.96400528 C13.4389987,6.82243368 13.1913689,7.52575294 12.6961094,8.0775152 C12.1769243,8.64466996 11.4890639,8.92765532 10.6301355,8.92765532 C9.80231043,8.92765532 9.14316068,8.65651035 8.65148999,8.11185233 C8.16101559,7.56837835 7.91577838,6.88281968 7.91577838,6.05636034 C7.91577838,5.19201175 8.16819326,4.48277229 8.67541557,3.93219407 C9.18263788,3.38161586 9.86451694,3.10573473 10.7234453,3.10573473 C11.5512704,3.10573473 12.2164015,3.3768797 12.720035,3.92035368 C13.1985466,4.44843515 13.4389987,5.13044171 13.4389987,5.96400528 L13.4389987,5.96400528 Z M12.1386434,6.00426262 C12.1386434,5.48920558 12.0261932,5.04755897 11.802489,4.67932279 C11.5393076,4.23412406 11.1648722,4.0115247 10.6779867,4.0115247 C10.1743532,4.0115247 9.79154391,4.23412406 9.52836253,4.67932279 C9.30346207,5.04755897 9.19220812,5.49630981 9.19220812,6.02675936 C9.19220812,6.5418164 9.30465835,6.98346301 9.52836253,7.35169919 C9.79991787,7.79689791 10.177942,8.01949728 10.6660239,8.01949728 C11.1445355,8.01949728 11.5201671,7.7933458 11.7905262,7.3398588 C12.0226043,6.96451838 12.1386434,6.51931965 12.1386434,6.00426262 L12.1386434,6.00426262 Z"></path>
                                    <path d="M22.8369668,3.21940249 L21.0724552,8.80096313 L19.9240274,8.80096313 L19.1931009,6.37723495 C19.0076776,5.77219094 18.8569465,5.17069904 18.7397111,4.5739433 L18.7169818,4.5739433 C18.6081204,5.18727559 18.4573893,5.78758345 18.2635921,6.37723495 L17.487207,8.80096313 L16.32562,8.80096313 L14.666381,3.21940249 L15.9547735,3.21940249 L16.5923902,5.87283427 C16.7467102,6.50037503 16.8735158,7.09831481 16.9751995,7.66428553 L16.9979288,7.66428553 C17.0912386,7.1977741 17.2455586,6.60338643 17.4632814,5.88467466 L18.2635921,3.22058653 L19.2852143,3.22058653 L20.0520292,5.82784078 C20.2374525,6.46366981 20.3881836,7.07581806 20.5042227,7.66546957 L20.5389148,7.66546957 C20.6238506,7.09121057 20.7518524,6.47906232 20.9217241,5.82784078 L21.6059957,3.22058653 L22.8369668,3.22058653 L22.8369668,3.21940249 Z"></path>
                                    <path d="M29.3363508,8.80096313 L28.0826504,8.80096313 L28.0826504,5.60405738 C28.0826504,4.61893679 27.7046262,4.1263765 26.9461853,4.1263765 C26.5741425,4.1263765 26.2738765,4.26135696 26.0406021,4.53250193 C25.8097202,4.8036469 25.6924849,5.12333747 25.6924849,5.48920558 L25.6924849,8.79977909 L24.4387844,8.79977909 L24.4387844,4.81430325 C24.4387844,4.32411104 24.4232328,3.79247745 24.3933258,3.21703442 L25.4950988,3.21703442 L25.5537165,4.08967128 L25.5884086,4.08967128 C25.7343546,3.81852631 25.9520774,3.59474291 26.2379881,3.415953 C26.5777314,3.2075621 26.9581481,3.10218262 27.3744532,3.10218262 C27.900816,3.10218262 28.3386541,3.27031618 28.6867713,3.60776734 C29.1198243,4.02099701 29.3363508,4.63788142 29.3363508,5.45723652 L29.3363508,8.80096313 L29.3363508,8.80096313 Z"></path>
                                    <path d="M32.7935972,8.80096313 L31.5410931,8.80096313 L31.5410931,0.658325777 L32.7935972,0.658325777 L32.7935972,8.80096313 L32.7935972,8.80096313 Z"></path>
                                    <path d="M40.1746389,5.96400528 C40.1746389,6.82243368 39.9270091,7.52575294 39.4317496,8.0775152 C38.9125645,8.64466996 38.2235078,8.92765532 37.3657757,8.92765532 C36.5367543,8.92765532 35.8776046,8.65651035 35.3871302,8.11185233 C34.8966558,7.56837835 34.6514186,6.88281968 34.6514186,6.05636034 C34.6514186,5.19201175 34.9038334,4.48277229 35.4110558,3.93219407 C35.9182781,3.38161586 36.6001571,3.10573473 37.4578892,3.10573473 C38.2869106,3.10573473 38.9508454,3.3768797 39.4556752,3.92035368 C39.9341868,4.44843515 40.1746389,5.13044171 40.1746389,5.96400528 L40.1746389,5.96400528 Z M38.8730873,6.00426262 C38.8730873,5.48920558 38.7606371,5.04755897 38.5369329,4.67932279 C38.2749478,4.23412406 37.8993162,4.0115247 37.4136269,4.0115247 C36.9087971,4.0115247 36.5259878,4.23412406 36.2640027,4.67932279 C36.0391023,5.04755897 35.9278483,5.49630981 35.9278483,6.02675936 C35.9278483,6.5418164 36.0402985,6.98346301 36.2640027,7.35169919 C36.5355581,7.79689791 36.9135822,8.01949728 37.4016641,8.01949728 C37.8801757,8.01949728 38.254611,7.7933458 38.5249701,7.3398588 C38.7582445,6.96451838 38.8730873,6.51931965 38.8730873,6.00426262 L38.8730873,6.00426262 Z"></path>
                                    <path d="M46.2421662,8.80096313 L45.1164676,8.80096313 L45.0231578,8.15802986 L44.9884657,8.15802986 C44.6032639,8.67071882 44.0541718,8.92765532 43.3411895,8.92765532 C42.8088453,8.92765532 42.3781849,8.75833772 42.0539933,8.42207059 C41.7597086,8.11658849 41.6125663,7.73651192 41.6125663,7.28539299 C41.6125663,6.60338643 41.8996733,6.08359324 42.477476,5.72364533 C43.0540825,5.36369743 43.8651597,5.18727559 44.9095113,5.19556386 L44.9095113,5.09136842 C44.9095113,4.35608009 44.5195243,3.98902795 43.7383541,3.98902795 C43.1820844,3.98902795 42.69161,4.12756054 42.2681272,4.40225762 L42.0133198,3.58763868 C42.53729,3.26676406 43.1844769,3.10573473 43.947703,3.10573473 C45.4215187,3.10573473 46.1608192,3.87536019 46.1608192,5.41461111 L46.1608192,7.4701031 C46.1608192,8.02778555 46.1883336,8.47180024 46.2421662,8.80096313 L46.2421662,8.80096313 Z M44.9406146,6.88281968 L44.9406146,6.0220232 C43.557716,5.99834242 42.8662667,6.37368284 42.8662667,7.14686041 C42.8662667,7.43813405 42.9452211,7.65599725 43.1067188,7.80163407 C43.2682165,7.94727089 43.4739765,8.01949728 43.7192137,8.01949728 C43.9943578,8.01949728 44.2515578,7.93306242 44.4860285,7.76137674 C44.7216955,7.58850702 44.8664453,7.36945977 44.9202778,7.10068288 C44.9334369,7.04029689 44.9406146,6.96688646 44.9406146,6.88281968 L44.9406146,6.88281968 Z"></path>
                                    <path d="M53.3660078,8.80096313 L52.2534683,8.80096313 L52.1948506,7.90464548 L52.1601586,7.90464548 C51.8048637,8.58665204 51.1995465,8.92765532 50.3489921,8.92765532 C49.6695056,8.92765532 49.1036656,8.66361458 48.655061,8.13553312 C48.2064563,7.60745165 47.9827522,6.92189297 47.9827522,6.08004112 C47.9827522,5.17661924 48.2255968,4.44488303 48.7136786,3.88601655 C49.1862089,3.36503931 49.7652079,3.1045507 50.4542646,3.1045507 C51.2115093,3.1045507 51.7414609,3.35675104 52.0429232,3.86233576 L52.0668488,3.86233576 L52.0668488,0.658325777 L53.3217455,0.658325777 L53.3217455,7.29723339 C53.3217455,7.84070736 53.3361008,8.34155593 53.3660078,8.80096313 L53.3660078,8.80096313 Z M52.0668488,6.44709326 L52.0668488,5.51643848 C52.0668488,5.35540915 52.054886,5.22516484 52.0321567,5.12570555 C51.9615762,4.82732768 51.8096488,4.57631138 51.5787669,4.37384068 C51.3454925,4.17136998 51.064367,4.06954262 50.7401753,4.06954262 C50.2724302,4.06954262 49.9063688,4.25306869 49.6372061,4.62130487 C49.3704358,4.98954105 49.2352563,5.4596046 49.2352563,6.03386359 C49.2352563,6.58562585 49.3632582,7.03319265 49.6204582,7.37774805 C49.8920135,7.74480019 50.2580749,7.92832626 50.7162498,7.92832626 C51.1277697,7.92832626 51.4567465,7.77558521 51.7067688,7.46891906 C51.9484172,7.1859337 52.0668488,6.84493042 52.0668488,6.44709326 L52.0668488,6.44709326 Z"></path>
                                    <path d="M64.0882568,5.96400528 C64.0882568,6.82243368 63.8406271,7.52575294 63.3453675,8.0775152 C62.8261824,8.64466996 62.1395183,8.92765532 61.2793936,8.92765532 C60.4527648,8.92765532 59.7936151,8.65651035 59.3007481,8.11185233 C58.8102737,7.56837835 58.5650365,6.88281968 58.5650365,6.05636034 C58.5650365,5.19201175 58.8174514,4.48277229 59.3246737,3.93219407 C59.831896,3.38161586 60.5137751,3.10573473 61.3738997,3.10573473 C62.2005285,3.10573473 62.8668559,3.3768797 63.3692931,3.92035368 C63.8478047,4.44843515 64.0882568,5.13044171 64.0882568,5.96400528 L64.0882568,5.96400528 Z M62.7890978,6.00426262 C62.7890978,5.48920558 62.6766476,5.04755897 62.4529434,4.67932279 C62.1885657,4.23412406 61.8153267,4.0115247 61.3272448,4.0115247 C60.8248076,4.0115247 60.4419983,4.23412406 60.1776207,4.67932279 C59.9527202,5.04755897 59.8414662,5.49630981 59.8414662,6.02675936 C59.8414662,6.5418164 59.9539165,6.98346301 60.1776207,7.35169919 C60.449176,7.79689791 60.8272002,8.01949728 61.315282,8.01949728 C61.7937936,8.01949728 62.1706215,7.7933458 62.4409806,7.3398588 C62.6718624,6.96451838 62.7890978,6.51931965 62.7890978,6.00426262 L62.7890978,6.00426262 Z"></path>
                                    <path d="M70.8292892,8.80096313 L69.576785,8.80096313 L69.576785,5.60405738 C69.576785,4.61893679 69.1987609,4.1263765 68.4391237,4.1263765 C68.0670809,4.1263765 67.7668149,4.26135696 67.5347367,4.53250193 C67.3026586,4.8036469 67.1866195,5.12333747 67.1866195,5.48920558 L67.1866195,8.79977909 L65.9317228,8.79977909 L65.9317228,4.81430325 C65.9317228,4.32411104 65.9173675,3.79247745 65.8874605,3.21703442 L66.9880372,3.21703442 L67.0466549,4.08967128 L67.081347,4.08967128 C67.2284893,3.81852631 67.4462121,3.59474291 67.7309265,3.415953 C68.071866,3.2075621 68.4510865,3.10218262 68.8685879,3.10218262 C69.3937544,3.10218262 69.8315925,3.27031618 70.1797097,3.60776734 C70.613959,4.02099701 70.8292892,4.63788142 70.8292892,5.45723652 L70.8292892,8.80096313 L70.8292892,8.80096313 Z"></path>
                                    <path d="M79.2666452,4.14887324 L77.8861392,4.14887324 L77.8861392,6.86032293 C77.8861392,7.54943373 78.1313764,7.89398913 78.6170657,7.89398913 C78.8419662,7.89398913 79.0285857,7.8750445 79.175728,7.83597121 L79.2080276,8.77728234 C78.9603978,8.8696374 78.6350099,8.91581493 78.2342564,8.91581493 C77.7389969,8.91581493 77.3537951,8.76662599 77.075062,8.46824812 C76.7951328,8.16987025 76.6563644,7.66783764 76.6563644,6.96333434 L76.6563644,4.14887324 L75.8321281,4.14887324 L75.8321281,3.21940249 L76.6563644,3.21940249 L76.6563644,2.19639265 L77.884943,1.82934051 L77.884943,3.21821846 L79.265449,3.21821846 L79.265449,4.14887324 L79.2666452,4.14887324 Z"></path>
                                    <path d="M85.9036013,8.80096313 L84.6487046,8.80096313 L84.6487046,5.62773816 C84.6487046,4.62722506 84.2706805,4.1263765 83.5134358,4.1263765 C82.9320442,4.1263765 82.5348796,4.41646609 82.3171568,4.99664528 C82.2800721,5.11860132 82.2585391,5.26779025 82.2585391,5.44302805 L82.2585391,8.79977909 L81.006035,8.79977909 L81.006035,0.658325777 L82.2585391,0.658325777 L82.2585391,4.02218105 L82.2824647,4.02218105 C82.6772368,3.4100328 83.2430768,3.1045507 83.9763958,3.1045507 C84.4955809,3.1045507 84.9250451,3.27268426 85.2659846,3.61013542 C85.6906637,4.03046932 85.9036013,4.655642 85.9036013,5.48210134 L85.9036013,8.80096313 L85.9036013,8.80096313 Z"></path>
                                    <path d="M92.7499063,5.74614208 C92.7499063,5.96874144 92.7331584,6.15581963 92.7032514,6.30856068 L88.9433464,6.30856068 C88.9600943,6.86032293 89.1395361,7.28065684 89.4876533,7.57193047 C89.8058636,7.83241909 90.2161873,7.9626634 90.7186245,7.9626634 C91.2748942,7.9626634 91.7821165,7.8750445 92.2390951,7.69862266 L92.4352849,8.56060318 C91.9005481,8.79030677 91.2713054,8.90515857 90.5427714,8.90515857 C89.6694877,8.90515857 88.9816273,8.65059015 88.4839752,8.14145331 C87.9839306,7.63231647 87.7363008,6.94912587 87.7363008,6.09188151 C87.7363008,5.25002967 87.9671827,4.54907848 88.4325352,3.99021199 C88.9182245,3.39345625 89.5749817,3.09507838 90.4040031,3.09507838 C91.2150803,3.09507838 91.831164,3.39345625 92.2474691,3.99021199 C92.5836235,4.46382766 92.7499063,5.04992705 92.7499063,5.74614208 L92.7499063,5.74614208 Z M91.5536272,5.42526746 C91.5631975,5.05703128 91.4806542,4.73970878 91.3107826,4.47211593 C91.0930598,4.12756054 90.7616905,3.95469082 90.3130859,3.95469082 C89.9039584,3.95469082 89.5701966,4.12282438 89.3153891,4.46027554 C89.1072366,4.72905243 88.9840199,5.04992705 88.9433464,5.42526746 L91.5536272,5.42526746 L91.5536272,5.42526746 Z"></path>
                                </g>
                            </g>
                        </g>
                    </g>
                </g>
            </g>
        </g>
    </g>
</svg>