<?xml version="1.0" encoding="utf-8"?>
<!-- Generator: Adobe Illustrator 19.1.0, SVG Export Plug-In . SVG Version: 6.00 Build 0)  -->
<svg version="1.1" id="Badges" xmlns="http://www.w3.org/2000/svg" xmlns:xlink="http://www.w3.org/1999/xlink" x="0px" y="0px"
	 viewBox="-229.5 235.5 128 40" style="enable-background:new -229.5 235.5 128 40;" xml:space="preserve">
<style type="text/css">
	.st0{fill:url(#SVGID_1_);}
	.st1{fill:url(#SVGID_2_);}
	.st2{fill:url(#SVGID_3_);}
	.st3{fill:url(#SVGID_4_);}
	.st4{fill:#FFFFFF;}
</style>
<g>
	<path d="M-105.5,275.5h-120c-2.2,0-4-1.8-4-4v-32c0-2.2,1.8-4,4-4h120c2.2,0,4,1.8,4,4v32C-101.5,273.7-103.3,275.5-105.5,275.5z"
		/>
	
		<linearGradient id="SVGID_1_" gradientUnits="userSpaceOnUse" x1="-213.2421" y1="321.9241" x2="-207.6439" y2="298.9332" gradientTransform="matrix(1 0 0 -1 0 564)">
		<stop  offset="0" style="stop-color:#006884"/>
		<stop  offset="1" style="stop-color:#8AD1D0"/>
	</linearGradient>
	<path class="st0" d="M-219.7,255.1v-10.5c0-0.6,0.5-1.1,1-1.1s0.7,0.1,1,0.3l19.3,10.6c0.4,0.2,0.6,0.5,0.6,0.8s-0.2,0.6-0.6,0.8
		l-19.3,10.6c-0.2,0.1-0.5,0.3-1,0.3s-1-0.5-1-1.1V255.1z"/>
	
		<linearGradient id="SVGID_2_" gradientUnits="userSpaceOnUse" x1="-220.0737" y1="318.6296" x2="-204.8177" y2="310.3821" gradientTransform="matrix(1 0 0 -1 0 564)">
		<stop  offset="0" style="stop-color:#24BBB6"/>
		<stop  offset="1" style="stop-color:#DBE692"/>
	</linearGradient>
	<path class="st1" d="M-207.2,255.2l-11.7-11.7c0.1,0,0.1,0,0.2,0c0.5,0,0.7,0.1,1,0.3l14.2,7.8L-207.2,255.2z"/>
	
		<linearGradient id="SVGID_3_" gradientUnits="userSpaceOnUse" x1="-202.5" y1="304.8799" x2="-202.5" y2="312.8283" gradientTransform="matrix(1 0 0 -1 0 564)">
		<stop  offset="0" style="stop-color:#FCC072"/>
		<stop  offset="1" style="stop-color:#F58A5B"/>
	</linearGradient>
	<path class="st2" d="M-203.6,258.7l-3.6-3.6l3.7-3.7l5.1,2.8c0.4,0.2,0.6,0.5,0.6,0.8s-0.2,0.6-0.6,0.8L-203.6,258.7z"/>
	
		<linearGradient id="SVGID_4_" gradientUnits="userSpaceOnUse" x1="-217.1349" y1="295.26" x2="-205.0832" y2="307.5252" gradientTransform="matrix(1 0 0 -1 0 564)">
		<stop  offset="0" style="stop-color:#712B8F"/>
		<stop  offset="1" style="stop-color:#EA1D27"/>
	</linearGradient>
	<path class="st3" d="M-218.8,266.7L-218.8,266.7l11.6-11.6l3.6,3.6l-14.1,7.7C-218,266.6-218.2,266.7-218.8,266.7
		C-218.7,266.7-218.7,266.7-218.8,266.7z"/>
	<path class="st4" d="M-158.4,269.4c-0.5-0.4-0.9-1.1-1.1-1.5l1.6-0.7c0.1,0.2,0.3,0.5,0.5,0.8c0.4,0.4,1,0.8,1.6,0.8
		s1.3-0.3,1.7-0.8c0.3-0.5,0.5-1,0.5-1.7v-0.6c-1.2,1.5-3.7,1.3-5.1-0.3c-1.5-1.6-1.5-4.3,0-5.9c1.5-1.5,3.7-1.7,5-0.3l0,0v-0.7h1.7
		v7.5c0,1.9-0.7,3-1.6,3.7c-0.6,0.5-1.5,0.7-2.3,0.7C-156.8,270.3-157.7,270-158.4,269.4L-158.4,269.4z M-116.5,269.8L-116.5,269.8
		l1.7-4l-3-6.9h1.7l2.1,4.9l2.1-4.9h1.7l-4.6,10.9H-116.5L-116.5,269.8z M-124.6,266L-124.6,266c-0.5-0.5-0.7-1.2-0.7-1.9
		c0-0.6,0.2-1.2,0.6-1.6c0.7-0.7,1.7-1,2.8-1c0.7,0,1.3,0.1,1.8,0.4c0-1.2-1-1.7-1.8-1.7c-0.7,0-1.4,0.4-1.7,1.1l-1.5-0.6
		c0.3-0.7,1.1-2,3.1-2c1,0,2,0.3,2.6,1c0.6,0.7,0.8,1.5,0.8,2.6v4.2h-1.7v-0.7c-0.2,0.3-0.6,0.5-0.9,0.7c-0.4,0.2-0.9,0.3-1.4,0.3
		C-123.2,266.7-124.1,266.5-124.6,266L-124.6,266z M-177.9,262.4L-177.9,262.4c0-2,1.5-4.2,4.2-4.2c2.6,0,4.2,2.2,4.2,4.2
		s-1.5,4.2-4.2,4.2S-177.9,264.4-177.9,262.4L-177.9,262.4z M-168.9,262.4L-168.9,262.4c0-2,1.5-4.2,4.2-4.2c2.6,0,4.2,2.2,4.2,4.2
		s-1.5,4.2-4.2,4.2C-167.3,266.6-168.9,264.4-168.9,262.4L-168.9,262.4z M-189.2,264.6L-189.2,264.6c-2.5-2.5-2.4-6.6,0.1-9.2
		c1.3-1.3,2.9-1.9,4.6-1.9c1.6,0,3.2,0.6,4.4,1.8l-1.2,1.3c-1.8-1.8-4.7-1.7-6.4,0.1c-1.8,1.9-1.8,4.8,0,6.7s4.8,2,6.6,0.1
		c0.6-0.6,0.8-1.4,0.9-2.2h-4.2v-1.8h5.9c0.1,0.4,0.1,0.9,0.1,1.4c0,1.5-0.6,3-1.6,4c-1.1,1.1-2.7,1.7-4.3,1.7
		C-186.1,266.5-187.9,265.9-189.2,264.6L-189.2,264.6z M-146.9,265.3L-146.9,265.3c-1.5-1.6-1.5-4.3,0-6c1.5-1.6,4-1.6,5.4,0
		c0.5,0.5,0.8,1.2,1.1,1.9l-5.5,2.3c0.3,0.7,1,1.3,2,1.3c0.9,0,1.5-0.3,2.1-1.2l1.5,1l0,0c-0.2,0.2-0.4,0.4-0.5,0.6
		C-142.5,266.9-145.4,266.9-146.9,265.3L-146.9,265.3z M-136.5,266.5L-136.5,266.5v-11.1h3.6c2.1,0,3.8,1.5,3.8,3.3
		c0,1.8-1.5,3.3-3.4,3.3h-2.2v4.4h-1.8V266.5z M-128.1,266.5L-128.1,266.5v-11.1h1.7v11.1H-128.1L-128.1,266.5z M-150.7,266.3
		L-150.7,266.3v-12.4h1.8v12.4H-150.7L-150.7,266.3z M-120.2,263.2L-120.2,263.2c-0.4-0.3-1-0.4-1.6-0.4c-1.2,0-1.9,0.6-1.9,1.3
		c0,0.7,0.7,1.1,1.4,1.1C-121.3,265.2-120.2,264.4-120.2,263.2L-120.2,263.2z M-171.4,262.4L-171.4,262.4c0-1.2-0.8-2.5-2.3-2.5
		s-2.3,1.3-2.3,2.5c0,1.2,0.8,2.5,2.3,2.5C-172.3,264.9-171.4,263.6-171.4,262.4L-171.4,262.4z M-162.4,262.4L-162.4,262.4
		c0-1.2-0.8-2.5-2.3-2.5s-2.3,1.3-2.3,2.5c0,1.2,0.8,2.5,2.3,2.5S-162.4,263.6-162.4,262.4L-162.4,262.4z M-153.5,263.1
		L-153.5,263.1c0-0.1,0-0.2,0.1-0.3l0,0c0-0.1,0-0.3,0-0.4s0-0.3,0-0.4v-0.1c0-0.1-0.1-0.3-0.1-0.4c-0.3-1-1.2-1.7-2.1-1.7
		c-1.2,0-2.2,1.2-2.2,2.5c0,1.4,1,2.5,2.3,2.5C-154.7,264.9-153.9,264.2-153.5,263.1L-153.5,263.1z M-146.2,262.2L-146.2,262.2
		l3.7-1.6c-0.4-0.7-1-0.9-1.5-0.9C-145.5,259.8-146.4,261.4-146.2,262.2L-146.2,262.2z M-130.9,258.8L-130.9,258.8
		c0-1-0.8-1.7-1.9-1.7h-2v3.5h2.1C-131.7,260.6-130.9,259.8-130.9,258.8z"/>
	<polygon class="st4" points="-115.2,267.8 -115.2,267.8 -115.3,267.8 -115.3,267.8 -115.3,267.7 -115.3,267.7 -115.2,267.7 
		-115.2,267.7 -115.3,267.7 -115.3,267.7 -115.3,267.8 -115.3,267.8 	"/>
	<path class="st4" d="M-115.2,267.8L-115.2,267.8C-115.2,267.7-115.2,267.7-115.2,267.8L-115.2,267.8
		C-115.2,267.7-115.2,267.7-115.2,267.8L-115.2,267.8L-115.2,267.8L-115.2,267.8L-115.2,267.8L-115.2,267.8L-115.2,267.8
		L-115.2,267.8L-115.2,267.8z M-115.2,267.7L-115.2,267.7L-115.2,267.7L-115.2,267.7L-115.2,267.7L-115.2,267.7L-115.2,267.7
		L-115.2,267.7z"/>
	<polygon class="st4" points="-115.2,267.8 -115.2,267.8 -115.2,267.7 -115.2,267.7 -115.2,267.7 -115.2,267.7 -115.2,267.7 
		-115.2,267.7 -115.2,267.7 -115.2,267.7 -115.2,267.8 	"/>
	<path class="st4" d="M-115.2,267.8L-115.2,267.8L-115.2,267.8L-115.2,267.8L-115.2,267.8L-115.2,267.8L-115.2,267.8L-115.2,267.8
		L-115.2,267.8L-115.2,267.8z M-115.2,267.7L-115.2,267.7L-115.2,267.7L-115.2,267.7L-115.2,267.7L-115.2,267.7L-115.2,267.7z"/>
	<polygon class="st4" points="-115.2,267.7 -115.2,267.7 -115.2,267.7 -115.2,267.7 -115.2,267.8 -115.2,267.8 -115.2,267.7 	"/>
	<polygon class="st4" points="-115.2,267.8 -115.2,267.8 -115.2,267.7 -115.2,267.7 -115.2,267.7 -115.2,267.7 -115.2,267.7 
		-115.2,267.7 -115.2,267.7 -115.2,267.7 -115.2,267.8 	"/>
	<path class="st4" d="M-115.2,267.8L-115.2,267.8C-115.2,267.7-115.2,267.7-115.2,267.8L-115.2,267.8L-115.2,267.8L-115.2,267.8
		L-115.2,267.8L-115.2,267.8z M-115.2,267.8L-115.2,267.8L-115.2,267.8L-115.2,267.8L-115.2,267.8L-115.2,267.8
		C-115.2,267.7-115.2,267.7-115.2,267.8L-115.2,267.8z"/>
	<path class="st4" d="M-115.1,267.8L-115.1,267.8C-115.1,267.7-115.1,267.7-115.1,267.8C-115.1,267.7-115.1,267.7-115.1,267.8
		L-115.1,267.8C-115.1,267.7-115.1,267.7-115.1,267.8L-115.1,267.8L-115.1,267.8L-115.1,267.8L-115.1,267.8L-115.1,267.8z
		 M-115.1,267.7L-115.1,267.7L-115.1,267.7L-115.1,267.7L-115.1,267.7L-115.1,267.7L-115.1,267.7L-115.1,267.7L-115.1,267.7z
		 M-115.1,267.8L-115.1,267.8L-115.1,267.8L-115.1,267.8L-115.1,267.8L-115.1,267.8C-115.1,267.7-115.1,267.7-115.1,267.8
		L-115.1,267.8z"/>
	<polygon class="st4" points="-115.1,267.7 -115.1,267.7 -115.1,267.7 -115.1,267.7 -115.1,267.7 -115.1,267.7 -115.1,267.7 
		-115.1,267.7 -115.1,267.8 -115.1,267.8 	"/>
	<polygon class="st4" points="-115.1,267.8 -115.1,267.8 -115.1,267.7 -115.1,267.7 -115.1,267.8 	"/>
	<path class="st4" d="M-115.1,267.8L-115.1,267.8C-115.1,267.7-115.1,267.7-115.1,267.8C-115.1,267.7-115.1,267.7-115.1,267.8
		L-115.1,267.8L-115.1,267.8L-115.1,267.8L-115.1,267.8z M-115.1,267.7L-115.1,267.7C-115.1,267.8-115.1,267.8-115.1,267.7
		C-115.1,267.8-115.1,267.8-115.1,267.7L-115.1,267.7L-115.1,267.7L-115.1,267.7L-115.1,267.7z"/>
	<path class="st4" d="M-115.1,267.8L-115.1,267.8L-115.1,267.8L-115.1,267.8L-115.1,267.8L-115.1,267.8L-115.1,267.8L-115.1,267.8
		L-115.1,267.8C-115.1,267.7-115.1,267.7-115.1,267.8C-115.1,267.7-115.1,267.7-115.1,267.8L-115.1,267.8
		C-115.1,267.7-115.1,267.7-115.1,267.8C-115.1,267.7-115.1,267.7-115.1,267.8L-115.1,267.8L-115.1,267.8L-115.1,267.8L-115.1,267.8
		z"/>
	<path class="st4" d="M-115,267.8L-115,267.8C-115,267.7-115,267.7-115,267.8C-115.1,267.7-115.1,267.7-115,267.8L-115,267.8
		C-115.1,267.8-115.1,267.8-115,267.8L-115,267.8L-115,267.8z M-115,267.7L-115,267.7C-115,267.8-115,267.8-115,267.7
		C-115,267.8-115.1,267.8-115,267.7L-115,267.7C-115.1,267.7-115,267.7-115,267.7L-115,267.7L-115,267.7z"/>
	<polygon class="st4" points="-115,267.8 -115,267.7 -115,267.7 -115,267.7 -115,267.7 -115,267.7 -115,267.8 -115,267.8 
		-115,267.7 -115,267.7 -115,267.8 -115,267.8 -115,267.7 -115,267.7 	"/>
	<path class="st4" d="M-115,267.8L-115,267.8L-115,267.8L-115,267.8L-115,267.8L-115,267.8L-115,267.8L-115,267.8L-115,267.8
		L-115,267.8z M-115,267.7L-115,267.7L-115,267.7L-115,267.7L-115,267.7L-115,267.7L-115,267.7z"/>
	<path class="st4" d="M-115,267.8C-115,267.7-115,267.7-115,267.8C-115,267.7-115,267.7-115,267.8C-115,267.7-115,267.7-115,267.8
		C-115,267.7-115,267.7-115,267.8L-115,267.8C-115,267.7-115,267.7-115,267.8C-115,267.7-115,267.7-115,267.8
		C-115,267.7-115,267.7-115,267.8C-115,267.7-115,267.7-115,267.8L-115,267.8L-115,267.8L-115,267.8L-115,267.8L-115,267.8z"/>
	<polygon class="st4" points="-114.9,267.7 -115,267.7 -115,267.7 -114.9,267.7 -114.9,267.8 -114.9,267.8 -114.9,267.7 	"/>
	<polygon class="st4" points="-114.9,267.8 -114.9,267.8 -114.9,267.7 -114.9,267.7 -114.9,267.7 -114.9,267.7 -114.9,267.7 
		-114.9,267.7 -114.9,267.7 -114.9,267.7 -114.9,267.8 	"/>
	<path class="st4" d="M-114.9,267.8L-114.9,267.8C-114.9,267.7-114.9,267.7-114.9,267.8L-114.9,267.8
		C-114.9,267.7-114.9,267.7-114.9,267.8L-114.9,267.8L-114.9,267.8L-114.9,267.8L-114.9,267.8L-114.9,267.8L-114.9,267.8
		L-114.9,267.8L-114.9,267.8z M-114.9,267.7L-114.9,267.7L-114.9,267.7L-114.9,267.7L-114.9,267.7L-114.9,267.7L-114.9,267.7
		L-114.9,267.7z"/>
	<path class="st4" d="M-190.6,245.6c0-1.8,1.3-2.9,2.9-2.9c1.1,0,1.8,0.5,2.3,1.2l-0.8,0.5c-0.3-0.4-0.8-0.7-1.5-0.7
		c-1.1,0-1.9,0.8-1.9,2s0.8,2,1.9,2c0.6,0,1.1-0.3,1.3-0.5v-0.9h-1.6v-0.9h2.7v2.1c-0.5,0.6-1.3,1-2.3,1
		C-189.3,248.5-190.6,247.3-190.6,245.6z"/>
	<path class="st4" d="M-184.1,248.4v-5.6h3.8v0.9h-2.9v1.4h2.8v0.9h-2.8v1.6h2.9v0.9L-184.1,248.4L-184.1,248.4z"/>
	<path class="st4" d="M-177.5,248.4v-4.7h-1.7v-0.9h4.4v0.9h-1.7v4.7C-176.5,248.4-177.5,248.4-177.5,248.4z"/>
	<path class="st4" d="M-171.4,248.4v-5.6h1v5.6H-171.4z"/>
	<path class="st4" d="M-167.7,248.4v-4.7h-1.7v-0.9h4.4v0.9h-1.7v4.7C-166.7,248.4-167.7,248.4-167.7,248.4z"/>
	<path class="st4" d="M-161.8,245.6c0-1.7,1.2-2.9,2.9-2.9s2.9,1.2,2.9,2.9c0,1.7-1.2,2.9-2.9,2.9
		C-160.6,248.5-161.8,247.2-161.8,245.6z M-157.1,245.6c0-1.2-0.7-2-1.9-2c-1.1,0-1.9,0.9-1.9,2c0,1.2,0.7,2,1.9,2
		C-157.8,247.6-157.1,246.7-157.1,245.6z"/>
	<path class="st4" d="M-151,248.4l-2.9-4v4h-1v-5.6h1l2.9,3.9v-3.9h1v5.6H-151z"/>
</g>
</svg>
