<?xml version="1.0" encoding="UTF-8" standalone="no"?>
<svg width="100px" height="100px" viewBox="0 0 100 100" version="1.1" xmlns="http://www.w3.org/2000/svg" xmlns:xlink="http://www.w3.org/1999/xlink">
    <!-- Generator: Sketch 3.6.1 (26313) - http://www.bohemiancoding.com/sketch -->
    <title>ico_penguin</title>
    <desc>Created with Sketch.</desc>
    <defs></defs>
    <g id="Desktop-Version" stroke="none" stroke-width="1" fill="none" fill-rule="evenodd">
        <g id="version_1_hand" transform="translate(-650.000000, -1510.000000)">
            <g id="feature_01" transform="translate(0.000000, 1152.000000)">
                <g id="ico_penguin" transform="translate(650.000000, 358.000000)">
                    <path d="M100,50 C100,77.6142857 77.6142857,100 50,100 C22.3857143,100 0,77.6142857 0,50 C0,22.3857143 22.3857143,0 50,0 C77.6142857,0 100,22.3857143 100,50" id="Fill-1" fill="#0DD3BB"></path>
                    <path d="M64.2857143,78.5714286 L35.7142857,78.5714286 C35.7142857,76.5991071 37.3133929,75 39.2857143,75 L60.7142857,75 C62.6866071,75 64.2857143,76.5991071 64.2857143,78.5714286" id="Fill-3" fill="#FFFFFF"></path>
                    <path d="M36.4283929,42.8571429 L25.7141071,57.1428571 C31.6310714,57.1428571 36.4283929,52.3455357 36.4283929,46.4285714 L36.4283929,42.8571429 Z" id="Fill-5" fill="#FFFFFF"></path>
                    <path d="M64.2857143,42.8571429 L75,57.1428571 C69.0830357,57.1428571 64.2857143,52.3455357 64.2857143,46.4285714 L64.2857143,42.8571429 Z" id="Fill-7" fill="#FFFFFF"></path>
                    <path d="M50,75 C42.66875,75 37.2232143,68.2107143 38.8133929,61.0544643 L41.3071429,49.8294643 C42.2133929,45.7553571 45.8267857,42.8571429 50,42.8571429 C54.1732143,42.8571429 57.7866071,45.7553571 58.6928571,49.8294643 L61.1866071,61.0544643 C62.7767857,68.2107143 57.33125,75 50,75 M41.9642857,30.3571429 C43.44375,30.3571429 44.6428571,31.55625 44.6428571,33.0357143 C44.6428571,34.5151786 43.44375,35.7142857 41.9642857,35.7142857 C40.4848214,35.7142857 39.2857143,34.5151786 39.2857143,33.0357143 C39.2857143,31.55625 40.4848214,30.3571429 41.9642857,30.3571429 M55.3035714,36.5535714 L55.3571429,36.6071429 L50,39.2857143 L44.6428571,36.6071429 L44.6964286,36.5535714 C47.6258929,33.6241071 52.3741071,33.6241071 55.3035714,36.5535714 M58.0357143,30.3571429 C59.5151786,30.3571429 60.7142857,31.55625 60.7142857,33.0357143 C60.7142857,34.5151786 59.5151786,35.7142857 58.0357143,35.7142857 C56.55625,35.7142857 55.3571429,34.5151786 55.3571429,33.0357143 C55.3571429,31.55625 56.55625,30.3571429 58.0357143,30.3571429 M67.4794643,57.5098214 L62.6892857,31.9589286 C61.54375,25.8535714 56.2125,21.4285714 50,21.4285714 C43.7875,21.4285714 38.45625,25.8535714 37.3107143,31.9589286 L32.5205357,57.5098214 C30.46875,68.4544643 38.8651786,78.5714286 50,78.5714286 C61.1348214,78.5714286 69.53125,68.4544643 67.4794643,57.5098214" id="Fill-9" fill="#FFFFFF"></path>
                </g>
            </g>
        </g>
    </g>
</svg>