<?xml version="1.0" encoding="UTF-8" standalone="no"?>
<svg width="100px" height="100px" viewBox="0 0 100 100" version="1.1" xmlns="http://www.w3.org/2000/svg" xmlns:xlink="http://www.w3.org/1999/xlink">
    <!-- Generator: Sketch 3.6.1 (26313) - http://www.bohemiancoding.com/sketch -->
    <title>ico_lambeosaurus</title>
    <desc>Created with Sketch.</desc>
    <defs></defs>
    <g id="Desktop-Version" stroke="none" stroke-width="1" fill="none" fill-rule="evenodd">
        <g id="version_1_hand" transform="translate(-650.000000, -3030.000000)">
            <g id="feature_03" transform="translate(0.000000, 2702.000000)">
                <g id="ico_lambeosaurus" transform="translate(650.000000, 328.000000)">
                    <path d="M100,50 C100,77.6142857 77.6142857,100 50,100 C22.3857143,100 0,77.6142857 0,50 C0,22.3857143 22.3857143,0 50,0 C77.6142857,0 100,22.3857143 100,50" id="Fill-1" fill="#94E044"></path>
                    <path d="M58.8928571,58.0357143 C57.4133929,58.0357143 56.2142857,56.8366071 56.2142857,55.3571429 C56.2142857,53.8776786 57.4133929,52.6785714 58.8928571,52.6785714 C60.3723214,52.6785714 61.5714286,53.8776786 61.5714286,55.3571429 C61.5714286,56.8366071 60.3723214,58.0357143 58.8928571,58.0357143 M62.4642857,42.8571429 C55.68125,42.8571429 49.8830357,47.0616071 47.525,53.0053571 L31.2892857,61.1232143 C27.7133929,62.9116071 25.3580357,66.4223214 25.0133929,70.3571429 L32.1428571,70.3571429 C33.5017857,70.3571429 34.6071429,69.2517857 34.6071429,67.8928571 L34.6071429,66.8214286 L35.6785714,66.7857143 L39.25,66.7857143 C39.8419643,66.7857143 40.3214286,67.2651786 40.3214286,67.8571429 C40.3214286,68.4482143 39.8419643,68.9285714 39.25,68.9285714 L36.6276786,68.9285714 C36.1482143,70.9830357 34.31875,72.5 32.1428571,72.5 L28.7080357,72.5 C29.1526786,73.94375 30.48125,75 32.0714286,75 L62.4642857,75 C71.3401786,75 78.5357143,67.8044643 78.5357143,58.9285714 C78.5357143,50.0526786 71.3401786,42.8571429 62.4642857,42.8571429" id="Fill-3" fill="#FFFFFF"></path>
                    <path d="M47.3149107,48.8299107 C50.5845536,43.940625 56.1541964,40.7147321 62.4640179,40.7147321 C67.1104464,40.7147321 71.3533036,42.465625 74.5747321,45.3388393 L77.0916964,42.821875 C79.0452679,40.8691964 79.0452679,37.7022321 77.0916964,35.7504464 L77.0559821,35.7147321 L77.0202679,35.7504464 C75.0675893,37.7022321 71.9024107,37.7022321 69.9488393,35.7504464 L69.913125,35.7147321 L60.0666964,25.8674107 C51.6979464,17.4986607 38.1291964,17.4986607 29.7604464,25.8674107 L29.581875,26.0459821 C28.1872321,27.440625 28.1872321,29.7022321 29.581875,31.096875 L47.3149107,48.8299107 Z" id="Fill-5" fill="#FFFFFF"></path>
                </g>
            </g>
        </g>
    </g>
</svg>