<?xml version="1.0" encoding="UTF-8" standalone="no"?>
<svg width="100px" height="100px" viewBox="0 0 100 100" version="1.1" xmlns="http://www.w3.org/2000/svg" xmlns:xlink="http://www.w3.org/1999/xlink">
    <!-- Generator: Sketch 3.6.1 (26313) - http://www.bohemiancoding.com/sketch -->
    <title>ico_doge</title>
    <desc>Created with Sketch.</desc>
    <defs></defs>
    <g id="Desktop-Version" stroke="none" stroke-width="1" fill="none" fill-rule="evenodd">
        <g id="version_1_hand" transform="translate(-270.000000, -2271.000000)">
            <g id="feature_02" transform="translate(0.000000, 1924.000000)">
                <g id="ico_doge" transform="translate(270.000000, 347.000000)">
                    <path d="M100,50 C100,77.6142857 77.6142857,100 50,100 C22.3857143,100 0,77.6142857 0,50 C0,22.3857143 22.3857143,0 50,0 C77.6142857,0 100,22.3857143 100,50" id="Fill-1" fill="#FFB000"></path>
                    <path d="M37.755,44.6938393 C36.6282143,44.6938393 35.7139286,45.6072321 35.7139286,46.7349107 C35.7139286,47.8616964 36.6282143,48.7750893 37.755,48.7750893 C38.8826786,48.7750893 39.7960714,47.8616964 39.7960714,46.7349107 C39.7960714,45.6072321 38.8826786,44.6938393 37.755,44.6938393" id="Fill-3" fill="#FFFFFF"></path>
                    <path d="M62.2445536,44.6938393 C61.1177679,44.6938393 60.204375,45.6072321 60.204375,46.7349107 C60.204375,47.8616964 61.1177679,48.7750893 62.2445536,48.7750893 C63.373125,48.7750893 64.285625,47.8616964 64.285625,46.7349107 C64.285625,45.6072321 63.373125,44.6938393 62.2445536,44.6938393" id="Fill-5" fill="#FFFFFF"></path>
                    <path d="M62.2445536,50.8161607 C59.9909821,50.8161607 58.1641964,48.9884821 58.1641964,46.7349107 C58.1641964,44.4804464 59.9909821,42.6527679 62.2445536,42.6527679 C64.4990179,42.6527679 66.3258036,44.4804464 66.3258036,46.7349107 C66.3258036,48.9884821 64.4990179,50.8161607 62.2445536,50.8161607 M54.0811607,61.808125 L45.9177679,61.808125 C42.9927679,61.808125 40.6115179,59.4277679 40.6115179,56.501875 C40.6115179,55.8250893 41.160625,55.276875 41.8374107,55.276875 C42.5124107,55.276875 43.0615179,55.8250893 43.0615179,56.501875 C43.0615179,58.076875 44.3427679,59.3590179 45.9177679,59.3590179 L47.9588393,59.3590179 L47.9588393,56.1224107 L45.3204464,53.4840179 C44.0347321,52.1983036 44.9454464,50.0000893 46.7641964,50.0000893 L53.235625,50.0000893 C55.054375,50.0000893 55.9659821,52.1983036 54.679375,53.4840179 L52.0400893,56.1224107 L52.0400893,59.3590179 L54.0811607,59.3590179 C55.6561607,59.3590179 56.9391964,58.076875 56.9391964,56.501875 C56.9391964,55.8250893 57.4874107,55.276875 58.1641964,55.276875 C58.8400893,55.276875 59.3883036,55.8250893 59.3883036,56.501875 C59.3883036,59.4277679 57.0079464,61.808125 54.0811607,61.808125 M33.673125,46.7349107 C33.673125,44.4804464 35.5008036,42.6527679 37.754375,42.6527679 C40.0097321,42.6527679 41.8374107,44.4804464 41.8374107,46.7349107 C41.8374107,48.9884821 40.0097321,50.8161607 37.754375,50.8161607 C35.5008036,50.8161607 33.673125,48.9884821 33.673125,46.7349107 M71.2829464,36.8170536 C72.3400893,35.0804464 72.9588393,33.0483036 72.9588393,30.8670536 L72.9588393,23.214375 L62.104375,29.726875 C58.4686607,28.0125893 54.3570536,27.0402679 49.9999107,27.0402679 C45.641875,27.0402679 41.5320536,28.0125893 37.8954464,29.726875 L27.0400893,23.214375 L27.0400893,30.8670536 C27.0400893,33.0483036 27.660625,35.0804464 28.716875,36.8170536 C25.2677679,41.0036607 23.2150893,46.2349107 23.2150893,51.9134821 C23.2150893,65.6500893 35.2061607,76.7858036 49.9999107,76.7858036 C64.7927679,76.7858036 76.785625,65.6500893 76.785625,51.9134821 C76.785625,46.2349107 74.7320536,41.0036607 71.2829464,36.8170536" id="Fill-7" fill="#FFFFFF"></path>
                </g>
            </g>
        </g>
    </g>
</svg>